<?xml version="1.0" standalone="no"?>
<!DOCTYPE svg PUBLIC "-//W3C//DTD SVG 20010904//EN"
 "http://www.w3.org/TR/2001/REC-SVG-20010904/DTD/svg10.dtd">
<svg version="1.0" xmlns="http://www.w3.org/2000/svg"
 width="400.000000pt" height="400.000000pt" viewBox="0 0 400.000000 400.000000"
 preserveAspectRatio="xMidYMid meet">
<metadata>
Created by potrace 1.11, written by Peter Selinger 2001-2013
</metadata>
<g transform="translate(0.000000,400.000000) scale(0.100000,-0.100000)"
fill="#000000" stroke="none">
<path d="M1800 3479 c-75 -16 -233 -69 -247 -83 -2 -2 3 -18 11 -37 12 -29 12
-39 1 -67 -14 -31 -11 -38 73 -224 49 -106 96 -212 106 -235 11 -24 25 -44 33
-44 7 -1 19 -2 26 -3 6 -1 34 9 60 22 l48 24 -6 110 c-6 106 -7 112 -35 138
-56 52 -24 140 50 140 70 0 105 -86 56 -135 -24 -23 -25 -30 -20 -112 6 -132
6 -131 61 -132 27 -1 57 -2 68 -4 19 -2 31 30 49 133 2 14 14 68 25 120 33
143 35 169 18 188 -38 44 -15 114 42 127 53 11 106 -37 97 -89 -6 -35 -13 -44
-45 -60 -28 -15 -28 -15 -57 -166 -3 -14 -17 -81 -33 -150 l-27 -125 43 -33
c25 -19 47 -31 51 -27 3 3 36 54 73 113 51 81 65 111 58 124 -5 9 -9 28 -9 41
0 32 53 78 83 73 12 -3 25 -5 29 -5 16 -2 48 -46 48 -67 0 -39 -21 -73 -53
-83 -16 -6 -32 -9 -36 -7 -8 5 -141 -205 -141 -221 0 -6 12 -15 28 -21 31 -11
71 -46 97 -85 l17 -27 61 44 c48 35 61 50 63 72 1 33 45 74 79 74 13 0 36 -11
51 -23 35 -31 37 -77 3 -113 -21 -22 -30 -25 -68 -21 -40 4 -51 0 -112 -42
-62 -42 -86 -71 -58 -71 6 0 31 -20 55 -46 24 -25 48 -43 53 -40 7 5 139 35
211 50 83 16 91 20 105 46 18 34 68 54 97 39 20 -11 20 -9 13 53 -24 223 -128
435 -295 599 -132 130 -277 213 -457 260 -116 30 -319 34 -443 8z"/>
<path d="M1312 3222 c-99 -96 -167 -188 -218 -300 -40 -86 -43 -96 -26 -98 6
-1 17 -2 22 -3 19 -2 60 -53 60 -75 0 -17 30 -39 140 -104 76 -45 143 -82 147
-82 4 1 24 14 43 30 19 17 39 30 45 30 5 0 16 4 24 9 10 7 1 25 -40 80 -42 56
-59 71 -79 71 -57 0 -97 56 -79 110 16 44 64 63 114 44 31 -12 47 -66 33 -112
-2 -4 22 -40 51 -79 54 -71 55 -71 70 -50 17 25 42 49 73 69 l22 15 -21 44
c-11 24 -60 131 -108 237 -70 154 -92 192 -107 192 -11 0 -33 13 -48 30 l-28
30 -90 -88z"/>
<path d="M1975 2760 c-22 -4 -60 -17 -85 -30 -27 -15 -64 -24 -93 -25 -60 -2
-94 -26 -127 -91 -23 -44 -29 -49 -68 -56 -83 -14 -135 -74 -134 -155 3 -117
113 -185 225 -138 46 19 41 20 74 -15 47 -50 85 -54 174 -16 9 4 30 -5 54 -24
21 -16 44 -31 51 -31 8 -1 19 -3 24 -4 6 -1 17 -3 25 -4 8 0 21 -14 29 -30 9
-17 31 -35 53 -44 21 -8 51 -29 67 -46 40 -41 95 -43 131 -5 14 15 25 32 26
38 0 6 2 23 3 37 1 16 15 38 35 55 58 48 76 120 47 188 -15 36 -63 86 -84 86
-16 0 -32 41 -32 82 0 44 -62 103 -117 112 -28 5 -47 15 -57 31 -36 54 -145
96 -221 85z"/>
<path d="M1101 2671 c-8 -5 -31 -8 -52 -6 -36 4 -37 3 -42 -33 -6 -43 -1 -277
6 -307 3 -11 10 -42 17 -70 38 -168 156 -366 293 -490 123 -113 258 -186 427
-233 83 -23 115 -26 245 -26 217 -1 361 39 535 146 144 88 360 324 320 349
-31 18 -37 25 -51 53 -12 25 -33 37 -124 73 -60 23 -115 43 -120 43 -20 0 -66
-60 -79 -103 -13 -44 -13 -45 19 -81 25 -29 39 -36 68 -36 54 0 83 -36 77 -95
-4 -42 -52 -70 -101 -60 -32 7 -64 64 -54 96 5 16 -2 30 -25 54 l-33 34 -36
-20 c-50 -26 -116 -25 -168 5 -23 13 -40 19 -38 13 2 -7 6 -42 9 -79 4 -57 9
-72 31 -90 14 -13 27 -34 30 -47 5 -28 -18 -76 -40 -85 -91 -34 -156 63 -90
134 12 14 21 32 20 40 -1 8 -5 50 -9 93 -6 76 -8 80 -48 118 -23 21 -48 39
-55 39 -19 0 -83 33 -83 42 0 5 -9 4 -21 -2 -11 -6 -38 -12 -59 -12 -39 0 -39
-1 -50 -52 -18 -85 -24 -166 -12 -166 10 0 23 -26 28 -59 2 -8 -2 -24 -8 -35
-41 -76 -148 -51 -150 35 -1 26 6 39 33 61 32 27 35 35 49 127 l16 99 -31 25
c-21 17 -36 22 -50 16 -34 -13 -124 -10 -163 7 -20 8 -49 27 -64 41 l-28 27
-78 -53 c-66 -45 -77 -57 -78 -82 -2 -38 -38 -69 -78 -69 -38 1 -62 18 -76 54
-21 57 42 120 99 99 22 -8 36 -2 101 40 41 28 76 50 77 51 1 1 -5 24 -12 53
-13 51 -12 94 5 139 10 25 5 31 -55 63 -22 12 -47 26 -55 31 -35 22 -168 100
-171 100 -2 0 -10 -4 -18 -9z"/>
<path d="M2810 2425 c-30 -8 -73 -16 -95 -20 -22 -3 -62 -12 -89 -19 l-48 -13
-2 -76 -1 -76 119 -46 c111 -42 120 -44 137 -29 18 16 53 16 90 0 13 -6 20 7
38 67 12 41 24 87 26 103 3 16 7 43 10 60 5 30 4 30 -34 30 -24 0 -48 7 -59
17 -21 20 -20 20 -92 2z"/>
<path d="M1471 1283 c-22 -33 -24 -38 -7 -18 33 38 34 21 2 -25 -13 -20 -26
-42 -29 -50 -2 -8 -3 -1 -1 15 3 22 1 26 -6 15 -18 -27 -10 -65 19 -98 20 -22
36 -30 48 -26 39 13 63 28 63 41 0 7 4 13 10 13 17 0 32 79 21 110 -5 16 -7
31 -4 34 5 5 -61 36 -77 36 -3 0 -21 -21 -39 -47z m59 28 c0 -5 -7 -12 -16
-15 -24 -9 -28 -7 -14 9 14 17 30 20 30 6z"/>
<path d="M2312 1311 c-9 -5 -9 -15 0 -38 10 -26 9 -41 -4 -80 l-17 -48 3 40
c3 41 -10 85 -26 85 -4 0 -17 -9 -28 -20 -11 -11 -26 -20 -34 -20 -24 0 -33
-88 -12 -124 17 -29 17 -30 -11 -52 -15 -13 -23 -24 -18 -24 6 0 4 -4 -4 -9
-9 -6 -10 -14 -4 -24 9 -17 20 -14 77 27 15 10 29 16 32 13 3 -3 -6 -28 -20
-56 -26 -51 -34 -91 -17 -91 5 0 23 11 39 25 l30 25 6 -35 c4 -19 11 -35 16
-35 14 0 23 45 15 70 -4 11 -2 26 3 33 15 18 19 62 6 60 -27 -5 1 40 32 53 38
16 45 43 14 51 -25 7 -26 19 -1 26 20 5 38 58 26 77 -9 15 -48 -8 -41 -25 2
-7 -7 -23 -21 -36 -15 -13 -23 -18 -19 -11 4 7 9 23 11 35 2 12 6 38 10 57 5
28 3 37 -13 47 -10 6 -24 8 -30 4z m48 -175 c0 -3 -4 -8 -10 -11 -5 -3 -10 -1
-10 4 0 6 5 11 10 11 6 0 10 -2 10 -4z"/>
<path d="M1722 1286 c-19 -23 -19 -42 2 -71 29 -43 47 -54 84 -55 38 0 39 6
11 69 -16 38 -27 50 -54 58 -25 8 -37 8 -43 -1z m38 -12 c0 -2 -7 -4 -15 -4
-8 0 -15 4 -15 10 0 5 7 7 15 4 8 -4 15 -8 15 -10z"/>
<path d="M2214 1255 c-10 -8 -14 -15 -8 -15 6 0 17 7 24 15 16 19 9 19 -16 0z"/>
<path d="M2471 1221 c-14 -26 -14 -31 3 -31 8 0 18 -6 22 -12 4 -7 4 -10 0 -6
-5 4 -21 -7 -38 -24 -35 -36 -26 -59 17 -40 14 7 37 12 50 12 32 0 40 16 15
30 -16 8 -18 15 -10 29 7 14 5 22 -8 33 -31 27 -41 29 -51 9z"/>
<path d="M1623 1171 c-13 -13 -31 -40 -41 -60 -32 -64 -71 -120 -92 -131 -24
-13 -43 -47 -34 -61 3 -6 17 6 31 28 14 21 31 43 37 48 6 6 29 35 50 65 22 30
48 62 59 71 11 9 18 25 15 40 l-3 24 -22 -24z"/>
<path d="M1655 1130 c-8 -13 12 -40 29 -40 6 0 32 -18 56 -40 33 -28 54 -40
78 -40 25 0 32 4 32 20 0 16 -7 20 -30 20 -20 0 -43 11 -67 34 -35 30 -74 56
-87 56 -3 0 -8 -5 -11 -10z"/>
<path d="M2457 1076 c-4 -10 -7 -30 -7 -46 0 -23 -5 -29 -30 -33 -16 -4 -30
-11 -30 -17 0 -20 32 -23 66 -6 20 9 60 16 92 16 68 0 91 10 67 30 -12 10 -18
10 -30 0 -19 -16 -51 -5 -38 13 5 6 8 18 7 25 -1 6 -2 17 -3 22 0 6 -8 10 -16
10 -8 0 -12 -6 -9 -13 6 -17 -31 -51 -46 -42 -5 3 -9 9 -6 13 2 4 0 16 -4 26
-6 18 -7 18 -13 2z"/>
<path d="M1638 1005 c-28 -10 -38 -11 -42 -2 -9 22 -26 -16 -26 -58 0 -43 27
-96 39 -76 4 6 27 17 52 24 37 11 44 17 42 36 -2 12 2 32 8 43 9 18 8 24 -7
35 -21 15 -19 15 -66 -2z m52 -20 c0 -13 -54 -55 -70 -55 -31 0 -23 18 18 39
37 20 52 25 52 16z"/>
<path d="M1330 595 c0 -57 4 -95 10 -95 6 0 10 38 10 95 0 57 -4 95 -10 95 -6
0 -10 -38 -10 -95z"/>
<path d="M1820 595 c0 -57 4 -95 10 -95 6 0 10 38 10 95 0 57 -4 95 -10 95 -6
0 -10 -38 -10 -95z"/>
<path d="M1391 615 c-17 -15 -31 -33 -31 -41 0 -20 57 -80 66 -71 4 4 -5 21
-21 37 l-29 30 29 30 c37 38 27 49 -14 15z"/>
<path d="M1570 577 c0 -29 5 -58 12 -65 14 -14 68 -16 68 -2 0 6 -13 10 -30
10 -30 0 -30 1 -30 55 0 30 -4 55 -10 55 -5 0 -10 -24 -10 -53z"/>
<path d="M1660 565 c0 -37 4 -65 10 -65 6 0 10 28 10 65 0 37 -4 65 -10 65 -6
0 -10 -28 -10 -65z"/>
<path d="M1850 621 c0 -5 12 -11 28 -13 25 -3 27 -7 30 -55 2 -29 7 -53 13
-53 13 0 11 104 -3 118 -14 14 -68 16 -68 3z"/>
<path d="M2070 577 c0 -29 5 -58 12 -65 14 -14 68 -16 68 -2 0 6 -13 10 -30
10 -30 0 -30 1 -30 55 0 30 -4 55 -10 55 -5 0 -10 -24 -10 -53z"/>
<path d="M2160 565 c0 -37 4 -65 10 -65 6 0 10 28 10 65 0 37 -4 65 -10 65 -6
0 -10 -28 -10 -65z"/>
<path d="M2320 565 c0 -37 4 -65 10 -65 6 0 10 28 10 65 0 37 -4 65 -10 65 -6
0 -10 -28 -10 -65z"/>
<path d="M2350 621 c0 -5 12 -11 28 -13 25 -3 27 -7 30 -55 2 -29 7 -53 13
-53 13 0 11 104 -3 118 -14 14 -68 16 -68 3z"/>
<path d="M2586 614 c-9 -8 -16 -31 -16 -49 0 -41 22 -65 61 -65 40 0 37 18 -3
22 -31 3 -33 5 -33 43 0 38 2 40 33 43 17 2 32 7 32 13 0 15 -57 10 -74 -7z"/>
<path d="M2668 553 c-3 -77 -3 -78 -31 -81 -16 -2 -35 2 -43 9 -19 16 -30 4
-14 -16 16 -20 74 -19 94 1 12 11 16 36 16 90 0 98 -18 96 -22 -3z"/>
</g>
</svg>
